<svg width="900" height="760" viewBox="0 0 900 760" xmlns="http://www.w3.org/2000/svg" font-family="Segoe UI, Roboto, Helvetica, Arial, sans-serif">

<style>
.zone { fill:#2f2f2f; stroke:#555; stroke-width:2 }
.node { rx:8; ry:8; stroke-width:2 }
.internet { fill:#3b82f6; stroke:#1e40af }
.dmz { fill:#ef4444; stroke:#7f1d1d }
.mgmt { fill:#a855f7; stroke:#581c87 }
.compute { fill:#14b8a6; stroke:#134e4a }
.storage { fill:#9ca3af; stroke:#374151 }

.title { fill:#e5e7eb; font-size:17px; font-weight:700; text-anchor:middle }
.text { fill:white; font-size:14px; font-weight:600; text-anchor:middle }
.small { fill:white; font-size:13px; font-weight:500; text-anchor:middle }

.line { stroke:#d1d5db; stroke-width:2 }
.dashed { stroke:#d1d5db; stroke-width:2; stroke-dasharray:6 6 }

.label { fill:#e5e7eb; font-size:12px; font-weight:600; text-anchor:middle }
</style>

<!-- INTERNET -->
<text x="450" y="30" class="title">INTERNET</text>

<rect x="390" y="45" width="120" height="50" class="node internet"/>
<text x="450" y="75" class="text">Internet</text>

<!-- DMZ ZONE -->
<rect x="260" y="120" width="380" height="180" class="zone"/>
<text x="450" y="140" class="title">DMZ ZONE | VLAN 503 | 95.2xx.1xx.0/24</text>

<rect x="360" y="160" width="180" height="60" class="node dmz"/>
<text x="450" y="188" class="text">MikroTik CCR1036</text>
<text x="450" y="205" class="small">Border Router / Firewall</text>

<rect x="360" y="235" width="180" height="60" class="node dmz"/>
<text x="450" y="263" class="text">ZB-NGINX</text>
<text x="450" y="280" class="small">Reverse Proxy (80 / 443)</text>

<!-- INTERNAL ZONE -->
<rect x="140" y="330" width="620" height="380" class="zone"/>
<text x="450" y="350" class="title">INTERNAL ZONE | VLAN 669 | 1xx.2x.3.0/16</text>

<!-- MANAGEMENT -->
<rect x="260" y="370" width="380" height="150" class="zone"/>
<text x="450" y="392" class="title">Management Layer</text>

<rect x="300" y="410" width="150" height="60" class="node mgmt"/>
<text x="375" y="438" class="text">ZB-BLESTA</text>
<text x="375" y="455" class="small">Billing Panel</text>

<rect x="460" y="410" width="150" height="60" class="node mgmt"/>
<text x="535" y="438" class="text">VZ-MASTER</text>
<text x="535" y="455" class="small">Virtualizor</text>

<!-- COMPUTE -->
<rect x="220" y="540" width="460" height="140" class="zone"/>
<text x="450" y="560" class="title">Compute Layer</text>

<rect x="350" y="575" width="200" height="60" class="node compute"/>
<text x="450" y="603" class="text">Proxmox Cluster</text>
<text x="450" y="620" class="small">HA Enabled / Ceph</text>

<rect x="260" y="650" width="120" height="55" class="node compute"/>
<text x="320" y="675" class="text">Node 1</text>
<text x="320" y="692" class="small">HPE DL360p</text>

<rect x="390" y="650" width="120" height="55" class="node compute"/>
<text x="450" y="675" class="text">Node 2</text>
<text x="450" y="692" class="small">HPE DL360p</text>

<rect x="520" y="650" width="120" height="55" class="node compute"/>
<text x="580" y="675" class="text">Node 3</text>
<text x="580" y="692" class="small">HPE DL360p</text>

<!-- STORAGE -->
<rect x="350" y="710" width="200" height="45" class="node storage"/>
<text x="450" y="737" class="text">Distributed LVM Storage</text>

<!-- CONNECTIONS -->
<line x1="450" y1="95" x2="450" y2="160" class="line"/>

<line x1="450" y1="220" x2="450" y2="235" class="line"/>

<line x1="450" y1="295" x2="375" y2="410" class="line"/>
<line x1="450" y1="295" x2="535" y2="410" class="line"/>

<line x1="375" y1="470" x2="535" y2="470" class="dashed"/>
<text x="455" y="465" class="label">API</text>

<line x1="535" y1="470" x2="450" y2="575" class="line"/>

<line x1="450" y1="635" x2="320" y2="650" class="line"/>
<line x1="450" y1="635" x2="450" y2="650" class="line"/>
<line x1="450" y1="635" x2="580" y2="650" class="line"/>

<line x1="320" y1="705" x2="450" y2="710" class="line"/>
<line x1="450" y1="705" x2="450" y2="710" class="line"/>
<line x1="580" y1="705" x2="450" y2="710" class="line"/>

</svg>
